<mxfile host="app.diagrams.net" modified="2024-05-22T14:42:56.568Z" agent="Mozilla/5.0 (Windows NT 10.0; Win64; x64) AppleWebKit/537.36 (KHTML, like Gecko) Chrome/121.0.0.0 Safari/537.36" etag="-RKUVviB1YJg355pNzf5" version="24.4.6" type="device">
  <diagram name="Página-1" id="louto1YrXL30ZH2oLwXY">
    <mxGraphModel dx="2261" dy="782" grid="1" gridSize="10" guides="1" tooltips="1" connect="1" arrows="1" fold="1" page="1" pageScale="1" pageWidth="827" pageHeight="1169" math="0" shadow="0">
      <root>
        <mxCell id="0" />
        <mxCell id="1" parent="0" />
        <mxCell id="R13zUvl5x-ow0rg93U1--30" value="" style="edgeStyle=orthogonalEdgeStyle;rounded=0;orthogonalLoop=1;jettySize=auto;html=1;" edge="1" parent="1" source="R13zUvl5x-ow0rg93U1--1" target="R13zUvl5x-ow0rg93U1--29">
          <mxGeometry relative="1" as="geometry" />
        </mxCell>
        <mxCell id="R13zUvl5x-ow0rg93U1--1" value="ínicio" style="ellipse;whiteSpace=wrap;html=1;" vertex="1" parent="1">
          <mxGeometry x="-300" y="10" width="90" height="50" as="geometry" />
        </mxCell>
        <mxCell id="R13zUvl5x-ow0rg93U1--29" value="listar cliente" style="whiteSpace=wrap;html=1;" vertex="1" parent="1">
          <mxGeometry x="-307.5" y="110" width="105" height="45" as="geometry" />
        </mxCell>
        <mxCell id="R13zUvl5x-ow0rg93U1--32" value="" style="endArrow=classic;startArrow=classic;html=1;rounded=0;" edge="1" parent="1">
          <mxGeometry width="50" height="50" relative="1" as="geometry">
            <mxPoint x="-320" y="210" as="sourcePoint" />
            <mxPoint x="-180" y="210" as="targetPoint" />
            <Array as="points">
              <mxPoint x="-250" y="160" />
            </Array>
          </mxGeometry>
        </mxCell>
        <mxCell id="R13zUvl5x-ow0rg93U1--33" value="buscar cliente" style="rounded=0;whiteSpace=wrap;html=1;" vertex="1" parent="1">
          <mxGeometry x="-380" y="220" width="100" height="40" as="geometry" />
        </mxCell>
        <mxCell id="R13zUvl5x-ow0rg93U1--36" value="" style="edgeStyle=orthogonalEdgeStyle;rounded=0;orthogonalLoop=1;jettySize=auto;html=1;" edge="1" parent="1" source="R13zUvl5x-ow0rg93U1--34" target="R13zUvl5x-ow0rg93U1--35">
          <mxGeometry relative="1" as="geometry" />
        </mxCell>
        <mxCell id="R13zUvl5x-ow0rg93U1--34" value="cadastrar cliente" style="rounded=0;whiteSpace=wrap;html=1;" vertex="1" parent="1">
          <mxGeometry x="-220" y="220" width="110" height="40" as="geometry" />
        </mxCell>
        <mxCell id="R13zUvl5x-ow0rg93U1--38" value="" style="edgeStyle=orthogonalEdgeStyle;rounded=0;orthogonalLoop=1;jettySize=auto;html=1;" edge="1" parent="1" source="R13zUvl5x-ow0rg93U1--35" target="R13zUvl5x-ow0rg93U1--37">
          <mxGeometry relative="1" as="geometry" />
        </mxCell>
        <mxCell id="R13zUvl5x-ow0rg93U1--35" value="nome" style="whiteSpace=wrap;html=1;rounded=0;" vertex="1" parent="1">
          <mxGeometry x="-40" y="220" width="105" height="40" as="geometry" />
        </mxCell>
        <mxCell id="R13zUvl5x-ow0rg93U1--40" value="" style="edgeStyle=orthogonalEdgeStyle;rounded=0;orthogonalLoop=1;jettySize=auto;html=1;" edge="1" parent="1" source="R13zUvl5x-ow0rg93U1--37" target="R13zUvl5x-ow0rg93U1--39">
          <mxGeometry relative="1" as="geometry" />
        </mxCell>
        <mxCell id="R13zUvl5x-ow0rg93U1--37" value="telefone" style="whiteSpace=wrap;html=1;rounded=0;" vertex="1" parent="1">
          <mxGeometry x="130" y="220" width="112.5" height="40" as="geometry" />
        </mxCell>
        <mxCell id="R13zUvl5x-ow0rg93U1--42" value="" style="edgeStyle=orthogonalEdgeStyle;rounded=0;orthogonalLoop=1;jettySize=auto;html=1;" edge="1" parent="1" source="R13zUvl5x-ow0rg93U1--39" target="R13zUvl5x-ow0rg93U1--41">
          <mxGeometry relative="1" as="geometry" />
        </mxCell>
        <mxCell id="R13zUvl5x-ow0rg93U1--39" value="endereço" style="whiteSpace=wrap;html=1;rounded=0;" vertex="1" parent="1">
          <mxGeometry x="318.75" y="220" width="111.25" height="40" as="geometry" />
        </mxCell>
        <mxCell id="R13zUvl5x-ow0rg93U1--44" style="edgeStyle=orthogonalEdgeStyle;rounded=0;orthogonalLoop=1;jettySize=auto;html=1;entryX=1;entryY=0.25;entryDx=0;entryDy=0;" edge="1" parent="1" source="R13zUvl5x-ow0rg93U1--41" target="R13zUvl5x-ow0rg93U1--29">
          <mxGeometry relative="1" as="geometry">
            <Array as="points">
              <mxPoint x="480" y="375" />
              <mxPoint x="480" y="133" />
              <mxPoint x="-202" y="133" />
            </Array>
          </mxGeometry>
        </mxCell>
        <mxCell id="R13zUvl5x-ow0rg93U1--45" value="sim" style="edgeLabel;html=1;align=center;verticalAlign=middle;resizable=0;points=[];" vertex="1" connectable="0" parent="R13zUvl5x-ow0rg93U1--44">
          <mxGeometry x="-0.9232" y="-1" relative="1" as="geometry">
            <mxPoint as="offset" />
          </mxGeometry>
        </mxCell>
        <mxCell id="R13zUvl5x-ow0rg93U1--46" style="edgeStyle=orthogonalEdgeStyle;rounded=0;orthogonalLoop=1;jettySize=auto;html=1;entryX=0.445;entryY=0.95;entryDx=0;entryDy=0;entryPerimeter=0;" edge="1" parent="1" source="R13zUvl5x-ow0rg93U1--41" target="R13zUvl5x-ow0rg93U1--34">
          <mxGeometry relative="1" as="geometry">
            <mxPoint x="-160" y="270" as="targetPoint" />
            <Array as="points">
              <mxPoint x="-171" y="375" />
            </Array>
          </mxGeometry>
        </mxCell>
        <mxCell id="R13zUvl5x-ow0rg93U1--47" value="não" style="edgeLabel;html=1;align=center;verticalAlign=middle;resizable=0;points=[];" vertex="1" connectable="0" parent="R13zUvl5x-ow0rg93U1--46">
          <mxGeometry x="-0.7791" y="4" relative="1" as="geometry">
            <mxPoint as="offset" />
          </mxGeometry>
        </mxCell>
        <mxCell id="R13zUvl5x-ow0rg93U1--41" value="os dados são válidos?" style="rhombus;whiteSpace=wrap;html=1;rounded=0;" vertex="1" parent="1">
          <mxGeometry x="323.82" y="330" width="101.1" height="90" as="geometry" />
        </mxCell>
        <mxCell id="R13zUvl5x-ow0rg93U1--49" value="" style="endArrow=classic;startArrow=classic;html=1;rounded=0;" edge="1" parent="1" target="R13zUvl5x-ow0rg93U1--50">
          <mxGeometry width="50" height="50" relative="1" as="geometry">
            <mxPoint x="-380" y="310" as="sourcePoint" />
            <mxPoint x="-250" y="310" as="targetPoint" />
            <Array as="points">
              <mxPoint x="-330" y="260" />
            </Array>
          </mxGeometry>
        </mxCell>
        <mxCell id="R13zUvl5x-ow0rg93U1--51" style="edgeStyle=orthogonalEdgeStyle;rounded=0;orthogonalLoop=1;jettySize=auto;html=1;entryX=0.5;entryY=1;entryDx=0;entryDy=0;" edge="1" parent="1" source="R13zUvl5x-ow0rg93U1--50" target="R13zUvl5x-ow0rg93U1--41">
          <mxGeometry relative="1" as="geometry">
            <Array as="points">
              <mxPoint x="-235" y="440" />
              <mxPoint x="374" y="440" />
            </Array>
          </mxGeometry>
        </mxCell>
        <mxCell id="R13zUvl5x-ow0rg93U1--50" value="atualizar cliente" style="rounded=0;whiteSpace=wrap;html=1;" vertex="1" parent="1">
          <mxGeometry x="-307.5" y="310" width="110" height="40" as="geometry" />
        </mxCell>
        <mxCell id="R13zUvl5x-ow0rg93U1--53" value="" style="endArrow=classic;html=1;rounded=0;" edge="1" parent="1">
          <mxGeometry width="50" height="50" relative="1" as="geometry">
            <mxPoint x="-170" y="330" as="sourcePoint" />
            <mxPoint x="-190" y="330" as="targetPoint" />
            <Array as="points" />
          </mxGeometry>
        </mxCell>
        <mxCell id="R13zUvl5x-ow0rg93U1--56" value="" style="edgeStyle=orthogonalEdgeStyle;rounded=0;orthogonalLoop=1;jettySize=auto;html=1;" edge="1" parent="1" source="R13zUvl5x-ow0rg93U1--54" target="R13zUvl5x-ow0rg93U1--55">
          <mxGeometry relative="1" as="geometry" />
        </mxCell>
        <mxCell id="R13zUvl5x-ow0rg93U1--54" value="apagar cliente" style="rounded=0;whiteSpace=wrap;html=1;" vertex="1" parent="1">
          <mxGeometry x="-450" y="310" width="110" height="40" as="geometry" />
        </mxCell>
        <mxCell id="R13zUvl5x-ow0rg93U1--55" value="fim" style="ellipse;whiteSpace=wrap;html=1;rounded=0;" vertex="1" parent="1">
          <mxGeometry x="-435" y="400" width="80" height="50" as="geometry" />
        </mxCell>
      </root>
    </mxGraphModel>
  </diagram>
</mxfile>
